# xmcd
#
# Track frame offsets: 
#        150
#        11550
#        23850
#        36265
#        47555
#        58875
#        73842
#        85342
#        94935
#        107307
#        118405
#        131982
#
# Disc length: 1935 seconds
#
# Revision: 0
# Processed by: cddbd v1.4PL0 Copyright (c) Steve Scherf et al.
# Submitted via: ExactAudioCopy v0.90b4
#
DISCID=aa078d0c
DTITLE=Faron Young - The Best Of Faron Young The Millennium Collection
DYEAR=2001
DGENRE=Country
TTITLE0=Keeping Up With The Joneses
TTITLE1=Walk Tall (Walk Straight)
TTITLE2=Unmitigated Gall
TTITLE3=I just Came By To Get My Baby
TTITLE4=Wine Me Up
TTITLE5=Your Time's Comin
TTITLE6=If I Ever Fall In Love
TTITLE7=Goin Steady
TTITLE8=Step Aside
TTITLE9=Leavin And Sayin Goodbye
TTITLE10=It's Four In The Morning
TTITLE11=This Little Girl Of Mine
EXTD=
EXTT0=
EXTT1=
EXTT2=
EXTT3=
EXTT4=
EXTT5=
EXTT6=
EXTT7=
EXTT8=
EXTT9=
EXTT10=
EXTT11=
PLAYORDER=
